<svg width="142" height="33" viewBox="0 0 142 33" fill="none" xmlns="http://www.w3.org/2000/svg">
<path d="M44.522 19.5356H41.3491V25H39.5586V11.4922H44.0303C45.5518 11.4922 46.7207 11.8385 47.5371 12.5312C48.3597 13.224 48.771 14.2321 48.771 15.5557C48.771 16.3968 48.5422 17.1297 48.0845 17.7544C47.633 18.3791 47.0021 18.846 46.1919 19.1553L49.3647 24.8887V25H47.4536L44.522 19.5356ZM41.3491 18.0791H44.0859C44.9704 18.0791 45.6724 17.8503 46.1919 17.3926C46.7176 16.9349 46.9805 16.3226 46.9805 15.5557C46.9805 14.7207 46.73 14.0806 46.229 13.6353C45.7342 13.1899 45.0168 12.9642 44.0767 12.958H41.3491V18.0791ZM58.9111 18.7563H53.0571V23.5435H59.8574V25H51.2759V11.4922H59.7646V12.958H53.0571V17.2998H58.9111V18.7563ZM72.0107 20.7139C71.8438 22.1426 71.3149 23.2466 70.4243 24.0259C69.5399 24.799 68.3617 25.1855 66.8896 25.1855C65.2939 25.1855 64.0137 24.6134 63.0488 23.4692C62.0902 22.325 61.6108 20.7943 61.6108 18.877V17.5781C61.6108 16.3226 61.8335 15.2186 62.2788 14.2661C62.7303 13.3136 63.3674 12.5838 64.1899 12.0767C65.0125 11.5633 65.965 11.3066 67.0474 11.3066C68.4823 11.3066 69.6326 11.7087 70.4985 12.5127C71.3644 13.3105 71.8685 14.4176 72.0107 15.834H70.2202C70.0656 14.7578 69.7285 13.9785 69.209 13.4961C68.6956 13.0137 67.9751 12.7725 67.0474 12.7725C65.9093 12.7725 65.0156 13.193 64.3662 14.0342C63.723 14.8753 63.4014 16.0721 63.4014 17.6245V18.9326C63.4014 20.3984 63.7075 21.5643 64.3198 22.4302C64.9321 23.2961 65.7887 23.729 66.8896 23.729C67.8792 23.729 68.6369 23.5063 69.1626 23.061C69.6945 22.6095 70.047 21.8271 70.2202 20.7139H72.0107ZM76.3618 25H74.5806V11.4922H76.3618V25ZM81.4087 19.7119V25H79.6274V11.4922H84.6094C86.0876 11.4922 87.2441 11.8695 88.0791 12.624C88.9202 13.3786 89.3408 14.3774 89.3408 15.6206C89.3408 16.9318 88.9295 17.943 88.1069 18.6543C87.2905 19.3594 86.1185 19.7119 84.5908 19.7119H81.4087ZM81.4087 18.2554H84.6094C85.5618 18.2554 86.2917 18.0327 86.7988 17.5874C87.306 17.1359 87.5596 16.4865 87.5596 15.6392C87.5596 14.8351 87.306 14.1919 86.7988 13.7095C86.2917 13.2271 85.5959 12.9766 84.7114 12.958H81.4087V18.2554ZM99.249 18.7563H93.395V23.5435H100.195V25H91.6138V11.4922H100.103V12.958H93.395V17.2998H99.249V18.7563ZM114.584 21.4746H108.925L107.654 25H105.817L110.976 11.4922H112.534L117.702 25H115.874L114.584 21.4746ZM109.463 20.0088H114.056L111.755 13.6909L109.463 20.0088ZM121.301 19.7119V25H119.52V11.4922H124.502C125.98 11.4922 127.137 11.8695 127.972 12.624C128.813 13.3786 129.233 14.3774 129.233 15.6206C129.233 16.9318 128.822 17.943 128 18.6543C127.183 19.3594 126.011 19.7119 124.483 19.7119H121.301ZM121.301 18.2554H124.502C125.454 18.2554 126.184 18.0327 126.691 17.5874C127.199 17.1359 127.452 16.4865 127.452 15.6392C127.452 14.8351 127.199 14.1919 126.691 13.7095C126.184 13.2271 125.488 12.9766 124.604 12.958H121.301V18.2554ZM133.288 19.7119V25H131.506V11.4922H136.488C137.966 11.4922 139.123 11.8695 139.958 12.624C140.799 13.3786 141.22 14.3774 141.22 15.6206C141.22 16.9318 140.808 17.943 139.986 18.6543C139.169 19.3594 137.997 19.7119 136.47 19.7119H133.288ZM133.288 18.2554H136.488C137.441 18.2554 138.171 18.0327 138.678 17.5874C139.185 17.1359 139.438 16.4865 139.438 15.6392C139.438 14.8351 139.185 14.1919 138.678 13.7095C138.171 13.2271 137.475 12.9766 136.59 12.958H133.288V18.2554Z" fill="#229879"/>
<path d="M5.66961 1.13221V12.5398M10.3343 1.13221V12.5398M1.00491 1.13221V12.751C0.934233 14.0889 1.5986 17.145 4.82149 18.666C5.03352 18.8069 5.45758 19.342 5.45758 20.3561V30.9186M15.2111 1.34346V12.9623C15.2111 14.2298 14.4477 17.145 11.3945 18.666C11.1824 18.8069 10.716 19.2576 10.5463 19.9336C10.3343 20.7786 10.5463 21.8348 10.5463 24.1586V27.5386C10.8291 29.1582 12.1578 32.3129 15.2111 31.9749C16.9073 32.0453 20.2998 31.3834 20.2998 28.1723C20.2998 24.9613 20.1585 9.65267 20.0878 2.39971C20.8652 1.34346 22.8866 -0.135301 24.7525 2.39971L27.933 14.2298C28.145 15.0748 27.9754 17.2295 25.6006 19.0885C25.3886 19.2998 24.9645 19.8491 24.9645 20.3561V31.5524" stroke="#229879" stroke-width="2"/>
</svg>
